<svg id="register-logo-sms-verifikasi" xmlns="http://www.w3.org/2000/svg" width="51.995" height="52" viewBox="0 0 51.995 52">
  <path id="Path_28" data-name="Path 28" d="M26,0A25.5,25.5,0,0,0,0,24.919,24.444,24.444,0,0,0,8.666,43.464v7.453a1.083,1.083,0,0,0,1.657.919l6.038-3.772A26.825,26.825,0,0,0,26,49.833a25.5,25.5,0,0,0,26-24.914A25.5,25.5,0,0,0,26,0Z" transform="translate(0 0)" fill="#53ff61"/>
  <path id="Path_29" data-name="Path 29" d="M214.456,360.46a1.083,1.083,0,0,0-1.387-.3L201.8,366.3l-7.008-6.01a1.083,1.083,0,0,0-1.471.056l-13,13a1.083,1.083,0,0,0,1.285,1.716l11.266-6.142,7.015,6.012a1.083,1.083,0,0,0,1.471-.056l13-13A1.083,1.083,0,0,0,214.456,360.46Z" transform="translate(-171.344 -342.69)" fill="#fafafa"/>
</svg>
